<svg xmlns="http://www.w3.org/2000/svg" xmlns:xlink="http://www.w3.org/1999/xlink" width="16" height="15"><defs><path id="a" d="M301.64 5112h-3.43v-10.11h3.43zm-1.71-11.5h-.03c-1.15 0-1.9-.77-1.9-1.74 0-1 .78-1.75 1.95-1.75s1.9.76 1.92 1.75c0 .97-.75 1.75-1.94 1.75zm3.6 11.5s.05-9.16 0-10.11h3.44v1.43a3.41 3.41 0 0 1 3.09-1.67c2.25 0 3.95 1.45 3.95 4.56v5.8h-3.43v-5.41c0-1.36-.5-2.3-1.74-2.3-.95 0-1.51.63-1.76 1.24-.1.21-.11.52-.11.82v5.65z"/></defs><use fill="#26272d" xlink:href="#a" opacity=".3" transform="translate(-298 -5097)"/></svg>