<svg xmlns="http://www.w3.org/2000/svg" xmlns:xlink="http://www.w3.org/1999/xlink" width="42" height="51"><defs><path id="a" d="M255 1146a4 4 0 0 1 4-4h34a4 4 0 0 1 4 4v23a4 4 0 0 1-4 4h-34a4 4 0 0 1-4-4z"/><path id="b" d="M275 1122h2a15 15 0 0 1 15 15v8h-32v-8a15 15 0 0 1 15-15z"/><path id="c" d="M276 1127a11 11 0 0 1 11 11v7h-22v-7a11 11 0 0 1 11-11z"/><path id="d" d="M268.58 1155.35a1.5 1.5 0 0 1 2.12 0l3.89 3.9 6.71-6.72a1.5 1.5 0 0 1 2.12 2.12l-7.77 7.77a1.5 1.5 0 0 1-2.12 0l-4.95-4.95a1.5 1.5 0 0 1 0-2.12z"/><clipPath id="e"><use fill="#fff" xlink:href="#a"/></clipPath><clipPath id="f"><use fill="#fff" xlink:href="#b"/></clipPath><clipPath id="g"><use fill="#fff" xlink:href="#c"/></clipPath><clipPath id="h"><use fill="#fff" xlink:href="#d"/></clipPath></defs><use fill="#fff" fill-opacity="0" stroke="#267df4" stroke-miterlimit="50" stroke-width="6" clip-path="url(&quot;#e&quot;)" xlink:href="#a" transform="translate(-255 -1122)"/><use fill="#fff" fill-opacity="0" stroke="#267df4" stroke-miterlimit="50" stroke-width="6" clip-path="url(&quot;#f&quot;)" xlink:href="#b" transform="translate(-255 -1122)"/><use fill="#fff" fill-opacity="0" stroke="#267df4" stroke-miterlimit="50" stroke-width="6" clip-path="url(&quot;#g&quot;)" xlink:href="#c" transform="translate(-255 -1122)"/><use fill="#fff" fill-opacity="0" stroke="#267df4" stroke-miterlimit="50" stroke-width="6" clip-path="url(&quot;#h&quot;)" xlink:href="#d" transform="translate(-255 -1122)"/></svg>