<svg xmlns="http://www.w3.org/2000/svg" xmlns:xlink="http://www.w3.org/1999/xlink" width="42" height="51" viewBox="0 0 42 51"><defs><path id="vnlva" d="M255 1146a4 4 0 0 1 4-4h34a4 4 0 0 1 4 4v23a4 4 0 0 1-4 4h-34a4 4 0 0 1-4-4z"/><path id="vnlvb" d="M275 1122h2a15 15 0 0 1 15 15v8h-32v-8a15 15 0 0 1 15-15z"/><path id="vnlvc" d="M276 1127a11 11 0 0 1 11 11v7h-22v-7a11 11 0 0 1 11-11z"/><path id="vnlvd" d="M268.58 1155.35a1.5 1.5 0 0 1 2.12 0l3.89 3.9 6.71-6.72a1.5 1.5 0 0 1 2.12 2.12l-7.77 7.77a1.5 1.5 0 0 1-2.12 0l-4.95-4.95a1.5 1.5 0 0 1 0-2.12z"/><clipPath id="vnlve"><use fill="#fff" xlink:href="#vnlva"/></clipPath><clipPath id="vnlvf"><use fill="#fff" xlink:href="#vnlvb"/></clipPath><clipPath id="vnlvg"><use fill="#fff" xlink:href="#vnlvc"/></clipPath><clipPath id="vnlvh"><use fill="#fff" xlink:href="#vnlvd"/></clipPath></defs><g><g transform="translate(-255 -1122)"><g><use fill="#fff" fill-opacity="0" stroke="#267df4" stroke-miterlimit="50" stroke-width="6" clip-path="url(&quot;#vnlve&quot;)" xlink:href="#vnlva"/></g><g><use fill="#fff" fill-opacity="0" stroke="#267df4" stroke-miterlimit="50" stroke-width="6" clip-path="url(&quot;#vnlvf&quot;)" xlink:href="#vnlvb"/></g><g><use fill="#fff" fill-opacity="0" stroke="#267df4" stroke-miterlimit="50" stroke-width="6" clip-path="url(&quot;#vnlvg&quot;)" xlink:href="#vnlvc"/></g><g><use fill="#fff" fill-opacity="0" stroke="#267df4" stroke-miterlimit="50" stroke-width="6" clip-path="url(&quot;#vnlvh&quot;)" xlink:href="#vnlvd"/></g></g></g></svg>