<svg xmlns="http://www.w3.org/2000/svg" xmlns:xlink="http://www.w3.org/1999/xlink" width="140" height="12" viewBox="0 0 140 12"><defs><path id="bu7na" d="M737.85 72.77l-4.56-7.4h-.04l.06 7.4h-2.66V61.44h3.12l4.55 7.4h.05l-.07-7.4h2.66v11.33zm5.44 0V61.44h7.62v2.3h-4.98v2.15h4.7v2.2h-4.7v2.34h5.27v2.34zm21.72 0h-2.7l-2.25-7.66h-.05l-2.24 7.66h-2.72l-3.21-11.33h2.94l1.8 7.54h.04l2.02-7.54h2.85l2.03 7.54h.05l1.82-7.54h2.85zm4.6-11.33h3.46c.6 0 1.16.06 1.66.19.5.12.93.3 1.28.56.36.26.63.59.82.98.2.4.29.87.29 1.42 0 .57-.1 1.05-.31 1.46-.21.4-.5.74-.87 1-.37.25-.8.44-1.3.56-.52.12-1.06.18-1.65.18h-1.8v4.98h-1.58zm1.59 5h1.68c.38 0 .74-.03 1.06-.1.33-.06.6-.17.84-.31.24-.15.42-.34.55-.57.12-.24.19-.52.19-.87 0-.34-.07-.62-.2-.85a1.6 1.6 0 0 0-.55-.56c-.22-.15-.5-.25-.82-.3a5.78 5.78 0 0 0-1.04-.1h-1.71zm9.52 6.33h-1.59V61.44h3.64c.54 0 1.06.06 1.55.17.49.11.92.29 1.29.54.36.24.65.56.87.96.21.4.32.9.32 1.47 0 .83-.26 1.5-.77 2.01-.51.52-1.17.84-1.98.98l3.16 5.2h-1.92l-2.88-5.04h-1.7zm0-6.37h1.82c.38 0 .72-.03 1.04-.1.32-.06.6-.16.84-.3.24-.15.43-.34.57-.57.14-.23.2-.51.2-.85 0-.34-.06-.63-.2-.86a1.6 1.6 0 0 0-.55-.55c-.23-.14-.5-.24-.81-.3a5.24 5.24 0 0 0-.98-.08h-1.93zm19.66.69a6.2 6.2 0 0 1-.45 2.4 5.71 5.71 0 0 1-5.56 3.57c-.87 0-1.67-.15-2.4-.44a5.65 5.65 0 0 1-3.59-5.53c0-.89.15-1.7.45-2.42a5.44 5.44 0 0 1 3.14-3.08 6.46 6.46 0 0 1 2.4-.44c.86 0 1.66.15 2.4.44a5.54 5.54 0 0 1 3.16 3.08c.3.73.45 1.53.45 2.42zm-1.71 0c0-.62-.1-1.2-.3-1.75-.2-.55-.5-1.03-.87-1.45a4.04 4.04 0 0 0-3.13-1.34 3.96 3.96 0 0 0-3.11 1.34c-.37.42-.66.9-.86 1.45a5.14 5.14 0 0 0 0 3.53 4.02 4.02 0 0 0 3.97 2.77c.65 0 1.24-.12 1.77-.36a3.98 3.98 0 0 0 2.23-2.41c.2-.56.3-1.15.3-1.78zm7.44 3.63h.05l3.4-9.28h1.72l-4.45 11.33h-1.47l-4.42-11.33h1.76zm8.1 2.05h-1.59V61.44h1.59zm2.75-11.33h3.89c.72 0 1.45.1 2.17.32.73.22 1.38.55 1.97 1.01a5.17 5.17 0 0 1 1.97 4.34 5.26 5.26 0 0 1-1.97 4.28c-.59.46-1.24.8-1.97 1.04-.72.23-1.45.34-2.17.34h-3.9zm1.58 9.94h1.99a6 6 0 0 0 1.9-.3c.57-.18 1.07-.46 1.5-.82.42-.37.75-.81.98-1.35.23-.53.35-1.13.35-1.8 0-.7-.12-1.33-.35-1.86a3.65 3.65 0 0 0-.98-1.34 4.35 4.35 0 0 0-1.5-.81 6.17 6.17 0 0 0-1.9-.28h-1.99zm12.18-.02h5.92v1.4h-7.5V61.45h7.26v1.4h-5.68v3.39h5.34v1.36h-5.34zm16.01-.86h.04v-9.06h1.58v11.33h-2l-5.98-9.25h-.04v9.25h-1.58V61.44h2.06zm14.08.51a5.1 5.1 0 0 1-4.32 2.05c-.86 0-1.66-.15-2.39-.44a5.56 5.56 0 0 1-3.13-3.12 6.3 6.3 0 0 1-.44-2.41c0-.89.15-1.7.45-2.42a5.48 5.48 0 0 1 3.18-3.08 6.53 6.53 0 0 1 4.7.01c.36.15.7.34 1 .55.3.22.55.48.76.76l-1.25.96c-.27-.38-.67-.7-1.17-.95a4.26 4.26 0 0 0-3.42-.02c-.53.25-.98.57-1.36.99-.37.42-.66.9-.86 1.45a5.3 5.3 0 0 0 0 3.54 3.9 3.9 0 0 0 2.2 2.42 4.3 4.3 0 0 0 3.5-.03c.52-.26.95-.63 1.29-1.12zm3.2.35h5.92v1.4h-7.5V61.45h7.26v1.4h-5.68v3.39h5.35v1.36H864z"/></defs><g><g transform="translate(-730 -61)"><use fill="#26272d" xlink:href="#bu7na"/></g></g></svg>