<svg xmlns="http://www.w3.org/2000/svg" xmlns:xlink="http://www.w3.org/1999/xlink" width="24" height="23" viewBox="0 0 24 23"><defs><path id="mq3na" d="M738.87 4665.87c.2.63.8 1.06 1.46 1.06h5.98c1.04 0 1.48 1.33.63 1.94l-4.84 3.52a1.53 1.53 0 0 0-.55 1.71l1.85 5.7c.32.99-.82 1.81-1.66 1.2l-4.84-3.52a1.53 1.53 0 0 0-1.8 0l-4.84 3.52a1.07 1.07 0 0 1-1.66-1.2l1.85-5.7c.2-.63-.02-1.32-.55-1.7l-4.85-3.53a1.08 1.08 0 0 1 .63-1.94h6c.65 0 1.24-.43 1.45-1.06l1.85-5.7c.32-.98 1.72-.98 2.04 0z"/></defs><g><g transform="translate(-724 -4659)"><use fill="#f2bc3b" xlink:href="#mq3na"/></g></g></svg>