<svg xmlns="http://www.w3.org/2000/svg" xmlns:xlink="http://www.w3.org/1999/xlink" width="17" height="14" viewBox="0 0 17 14"><defs><path id="eg77a" d="M232 5099.66c-.63.28-1.3.47-2 .55a3.54 3.54 0 0 0 1.53-1.95c-.67.4-1.42.7-2.21.86a3.46 3.46 0 0 0-2.55-1.12 3.51 3.51 0 0 0-3.4 4.34 9.86 9.86 0 0 1-7.18-3.7 3.55 3.55 0 0 0 1.08 4.73 3.45 3.45 0 0 1-1.58-.45v.05c0 1.71 1.2 3.14 2.8 3.46a3.47 3.47 0 0 1-1.58.06 3.5 3.5 0 0 0 3.26 2.46 6.94 6.94 0 0 1-5.17 1.46 9.78 9.78 0 0 0 5.35 1.59c6.41 0 9.92-5.39 9.92-10.05l-.01-.46a7.14 7.14 0 0 0 1.74-1.83z"/></defs><g><g opacity=".3" transform="translate(-215 -5098)"><use fill="#26272d" xlink:href="#eg77a"/></g></g></svg>